# xmcd
#
# Track frame offsets:
#	150
#	25767
#	41704
#	69624
#	97070
#	125547
#	149427
#	173415
#	196514
#	229313
#	244612
#	276314
#	305782
#
# Disc length: 4595 seconds
#
# Revision: 1
# Processed by: cddbd v1.4PL0 Copyright (c) Steve Scherf et al.
# Submitted via: CDmax 2.0
#
DISCID=b911f10d
DTITLE=Tall Paul - Mixed Live Session 2 @ Club Space in Miami
DYEAR=2003
DGENRE=Techno - Progressive House
TTITLE0=Cloak and Dagger - The Boat
TTITLE1=Y.B.F. - Dreaming [Danster Remix]
TTITLE2=Richard F. - Down and Dirty
TTITLE3=Midtone - Pearl
TTITLE4=Hatrixx - Pressure
TTITLE5=Dj Sandy v. Houstrap - Overdrive [Junkie XL Remix]
TTITLE6=Who Da Funk Feat. Jessica Eve - Shiny Disco Balls [Oliver Klein Dirt
TTITLE6=y Disco Plums Remix]
TTITLE7=Twister - Revolution
TTITLE8=P.I.M.P. - Why?
TTITLE9=Tomaz v. Filterheadz - Sunshine
TTITLE10=Warrior - If You Want Me
TTITLE11=Pornorama feat. Louise Carver - I'd Say Yes [Lee-Cabrera Mix]
TTITLE12=Exposure - Magic Impulse
EXTD=
EXTT0=
EXTT1=
EXTT2=
EXTT3=
EXTT4=
EXTT5=
EXTT6=
EXTT7=
EXTT8=
EXTT9=
EXTT10=
EXTT11=
EXTT12=
PLAYORDER=
